<svg xmlns="http://www.w3.org/2000/svg" xmlns:xlink="http://www.w3.org/1999/xlink" width="1058" height="888" viewBox="0 0 1058 888">
  <defs>
    <linearGradient id="linear-gradient" y1="0.5" x2="1" y2="0.5" gradientUnits="objectBoundingBox">
      <stop offset="0" stop-color="#f8c417"/>
      <stop offset="1" stop-color="#e61972"/>
    </linearGradient>
  </defs>
  <g id="logo" transform="translate(91 144)">
    <rect id="backround" width="1058" height="725" rx="107" transform="translate(-91 -62)" fill="url(#linear-gradient)"/>
    <rect id="backround-2" data-name="backround" width="1058" height="888" rx="107" transform="translate(-91 -144)" fill="none"/>
    <path id="Exclusion_16" data-name="Exclusion 16" d="M-13751,81.882h0C-13780.9,68.612-13826.278,61-13875.5,61c-46.121,0-89.678,6.843-119.5,18.773v-29C-13965.18,38.844-13921.623,32-13875.5,32c49.222,0,94.6,7.611,124.5,20.881v29Zm0-196.88h-244v-29h244v29Z" transform="translate(14315 430)" fill="#fff"/>
    <ellipse id="Ellipse_1" data-name="Ellipse 1" cx="85.5" cy="79" rx="85.5" ry="79" transform="translate(235 156)" fill="#fff"/>
    <ellipse id="Ellipse_2" data-name="Ellipse 2" cx="101" cy="111" rx="101" ry="111" transform="translate(339 76)" fill="#fff"/>
    <ellipse id="Ellipse_3" data-name="Ellipse 3" cx="97" cy="87.5" rx="97" ry="87.5" transform="translate(455 156)" fill="#fff"/>
    <path id="Soustraction_4" data-name="Soustraction 4" d="M-13714,52.883v0C-13743.9,39.611-13789.276,32-13838.5,32c-46.118,0-89.674,6.843-119.5,18.775V-144h244V52.883Z" transform="translate(14278 400)" fill="#fff"/>
  </g>
</svg>
